<?xml version="1.0" standalone="no"?>
<!DOCTYPE svg PUBLIC "-//W3C//DTD SVG 20010904//EN"
 "http://www.w3.org/TR/2001/REC-SVG-20010904/DTD/svg10.dtd">
<svg version="1.0" xmlns="http://www.w3.org/2000/svg"
 width="51.000000pt" height="51.000000pt"
 preserveAspectRatio="xMidYMid meet">

<g transform="translate(0.000000,51.000000) scale(0.0100000,-0.0100000)"
fill="#ffff" stroke="none">
<path d="M2480 2680 l0 -120 80 0 80 0 0 120 0 120 -80 0 -80 0 0 -120z"/>
<path d="M1597 2402 l-57 -58 85 -84 85 -85 57 58 58 57 -85 85 -85 85 -58
-58z"/>
<path d="M3380 2375 l-85 -85 58 -57 57 -58 85 85 85 85 -58 58 -58 57 -84
-85z"/>
<path d="M2410 2226 c-187 -40 -340 -130 -460 -271 -227 -268 -252 -656 -60
-948 278 -427 880 -490 1235 -130 358 361 295 955 -132 1233 -75 50 -143 79
-243 107 -78 21 -260 26 -340 9z"/>
<path d="M1200 1440 l0 -80 120 0 120 0 0 80 0 80 -120 0 -120 0 0 -80z"/>
<path d="M3680 1440 l0 -80 120 0 120 0 0 80 0 80 -120 0 -120 0 0 -80z"/>
<path d="M1622 617 l-82 -83 58 -57 58 -57 84 85 84 85 -54 55 c-30 30 -57 55
-60 55 -3 0 -42 -37 -88 -83z"/>
<path d="M3350 645 l-54 -55 84 -85 84 -85 53 52 c29 29 53 57 53 63 0 10
-150 165 -161 165 -2 0 -29 -25 -59 -55z"/>
<path d="M2480 200 l0 -120 80 0 80 0 0 120 0 120 -80 0 -80 0 0 -120z"/>
</g>
</svg>
